<svg id="Layer_1" data-name="Layer 1" xmlns="http://www.w3.org/2000/svg" xmlns:xlink="http://www.w3.org/1999/xlink" viewBox="0 0 180 60"><defs><style>.cls-1{fill:#020201;}.cls-2,.cls-6{fill:#fff;}.cls-3{fill:#8fc8f1;}.cls-4{fill:url(#linear-gradient);}.Graphic-Style-2{fill:url(#linear-gradient-2);}.cls-5{fill:url(#linear-gradient-3);}.cls-6{font-size:13.88px;font-family:MyriadPro-Regular, Myriad Pro;}</style><linearGradient id="linear-gradient" x1="39.68" y1="29.16" x2="6.63" y2="29.16" gradientUnits="userSpaceOnUse"><stop offset="0" stop-color="#f7df14"/><stop offset="0.42" stop-color="#eaba18"/><stop offset="0.78" stop-color="#e2a21a"/><stop offset="1" stop-color="#df991b"/></linearGradient><linearGradient id="linear-gradient-2" x1="31.11" y1="32.3" x2="0.02" y2="63.38" gradientUnits="userSpaceOnUse"><stop offset="0" stop-color="#c83b3f"/><stop offset="1" stop-color="#ab1864"/></linearGradient><linearGradient id="linear-gradient-3" x1="-0.12" y1="-5.2" x2="25.26" y2="20.18" gradientUnits="userSpaceOnUse"><stop offset="0" stop-color="#5a9769"/><stop offset="0.3" stop-color="#6fa566"/><stop offset="0.73" stop-color="#87b462"/><stop offset="1" stop-color="#90ba61"/></linearGradient></defs><title>apple_store_logo</title><path class="cls-1" d="M180,50.59a5.11,5.11,0,0,1-5.17,5.12H5.05a5,5,0,0,1-5-5.05V9.33a5,5,0,0,1,5.05-5H174.83a5,5,0,0,1,5.15,5V50.66Z"/><path class="cls-2" d="M90.33,31.56a5.81,5.81,0,1,0,5.84,5.81A5.73,5.73,0,0,0,90.33,31.56Zm0,9.33a3.53,3.53,0,1,1,3.28-3.52A3.36,3.36,0,0,1,90.33,40.89ZM77.6,31.56a5.81,5.81,0,1,0,5.83,5.81A5.73,5.73,0,0,0,77.6,31.56Zm0,9.33a3.53,3.53,0,1,1,3.28-3.52A3.36,3.36,0,0,1,77.6,40.89ZM62.45,33.34v2.47h5.9A5.07,5.07,0,0,1,67,38.91a6,6,0,0,1-4.56,1.81,6.57,6.57,0,0,1,0-13.13,6.3,6.3,0,0,1,4.45,1.76l1.74-1.74a8.58,8.58,0,0,0-6.19-2.48,9,9,0,1,0,0,18.05,8.25,8.25,0,0,0,6.3-2.53,8.15,8.15,0,0,0,2.14-5.77,7.85,7.85,0,0,0-.14-1.54Zm61.94,1.92a5.4,5.4,0,0,0-5-3.7,5.52,5.52,0,0,0-5.48,5.81,5.69,5.69,0,0,0,5.77,5.81,5.78,5.78,0,0,0,4.84-2.57l-2-1.32a3.31,3.31,0,0,1-2.86,1.6,3,3,0,0,1-2.82-1.76l7.77-3.21Zm-7.93,1.93a3.2,3.2,0,0,1,3-3.39A2.26,2.26,0,0,1,121.66,35Zm-6.32,5.64h2.56V25.74h-2.56Zm-4.18-10h-.09a4,4,0,0,0-3.06-1.3,5.81,5.81,0,0,0,0,11.62,4,4,0,0,0,3.06-1.32H106v.84c0,2.22-1.19,3.41-3.11,3.41A3.22,3.22,0,0,1,99.92,44L97.7,45a5.53,5.53,0,0,0,5.15,3.43c3,0,5.53-1.76,5.53-6V31.91H106Zm-2.93,8a3.53,3.53,0,0,1,0-7,3.27,3.27,0,0,1,3.1,3.54A3.24,3.24,0,0,1,103,40.89Zm33.33-15.15h-6.12V42.83h2.55V36.36h3.57a5.32,5.32,0,1,0,0-10.62Zm.06,8.24h-3.63V28.12h3.63a2.93,2.93,0,1,1,0,5.86Zm15.77-2.46a4.79,4.79,0,0,0-4.55,2.62l2.26,1a2.41,2.41,0,0,1,2.33-1.26,2.45,2.45,0,0,1,2.68,2.2v.18a5.56,5.56,0,0,0-2.66-.66c-2.44,0-4.92,1.34-4.92,3.85,0,2.28,2,3.76,4.24,3.76a3.57,3.57,0,0,0,3.25-1.68h.09V42.8h2.47V36.25C157.38,33.22,155.11,31.52,152.19,31.52Zm-.31,9.37c-.84,0-2-.42-2-1.45,0-1.32,1.45-1.83,2.7-1.83a4.53,4.53,0,0,1,2.33.58A3.09,3.09,0,0,1,151.88,40.89Zm14.47-9-2.93,7.41h-.09l-3-7.41h-2.75l4.55,10.35L159.51,48h2.66l7-16.11Zm-23,10.93h2.55V25.74h-2.55Z"/><path class="cls-3" d="M11.45,12.14a2.72,2.72,0,0,0-.63,1.92V44.27a2.71,2.71,0,0,0,.63,1.91l.1.1L28.47,29.36V29L11.55,12Z"/><path class="cls-4" d="M34.11,35l-5.64-5.64V29l5.65-5.64.12.07,6.69,3.8c1.9,1.08,1.9,2.86,0,3.94l-6.69,3.8Z"/><path class="Graphic-Style-2" d="M34.24,34.93l-5.77-5.77-17,17c.63.67,1.67.75,2.84.09l20-11.34"/><path class="cls-5" d="M34.24,23.39l-20-11.33c-1.17-.67-2.21-.59-2.84.08l17,17Z"/><text class="cls-6" transform="translate(54.22 20.38)">GET IT ON</text></svg>