<svg id="Layer_1" data-name="Layer 1" xmlns="http://www.w3.org/2000/svg" viewBox="0 0 180 60"><defs><style>.cls-1{fill:#020201;}.cls-2{fill:#fff;}</style></defs><title>apple_store_logo</title><path class="cls-1" d="M180,50.59a5.11,5.11,0,0,1-5.17,5.12H5.05a5,5,0,0,1-5-5.05V9.33a5,5,0,0,1,5.05-5H174.83a5,5,0,0,1,5.15,5V50.66Z"/><path class="cls-2" d="M39.42,29.71a7.84,7.84,0,0,1,3.73-6.58,8,8,0,0,0-6.33-3.43c-2.66-.28-5.24,1.6-6.59,1.6s-3.48-1.57-5.73-1.52a8.43,8.43,0,0,0-7.09,4.32c-3.06,5.31-.78,13.11,2.16,17.41C21,43.61,22.76,46,25,45.87s3-1.4,5.67-1.4,3.4,1.4,5.69,1.35,3.85-2.12,5.27-4.24a16.87,16.87,0,0,0,2.4-4.9,7.57,7.57,0,0,1-4.62-7"/><path class="cls-2" d="M35.09,16.88a7.7,7.7,0,0,0,1.76-5.53A7.81,7.81,0,0,0,31.77,14,7.35,7.35,0,0,0,30,19.31a6.51,6.51,0,0,0,5.14-2.43"/><path class="cls-2" d="M71.24,45.57H68.17l-1.69-5.29H60.63L59,45.57H56l5.8-18h3.57ZM66,38.06l-1.52-4.7c-.17-.48-.47-1.62-.91-3.4h-.06c-.18.77-.46,1.9-.85,3.4l-1.5,4.7Z"/><path class="cls-2" d="M86.15,38.91a7.4,7.4,0,0,1-1.79,5.24,5.24,5.24,0,0,1-4,1.71A4,4,0,0,1,76.69,44h0v6.84H73.75v-14c0-1.39,0-2.82-.11-4.28h2.54l.16,2.06h.06a5.14,5.14,0,0,1,8.21-.51,7.15,7.15,0,0,1,1.54,4.78M83.21,39a5.38,5.38,0,0,0-.86-3.13,3,3,0,0,0-4.44-.57,3.28,3.28,0,0,0-1.14,1.86,3.73,3.73,0,0,0-.13.88v2.16a3.47,3.47,0,0,0,.86,2.39,2.87,2.87,0,0,0,2.26,1,2.94,2.94,0,0,0,2.54-1.26A5.48,5.48,0,0,0,83.21,39"/><path class="cls-2" d="M101.08,38.91a7.36,7.36,0,0,1-1.79,5.24,5.23,5.23,0,0,1-4,1.71A4,4,0,0,1,91.63,44h-.06v6.84H88.69v-14c0-1.39,0-2.82-.11-4.28h2.54l.16,2.06h0a5.15,5.15,0,0,1,8.22-.51,7.2,7.2,0,0,1,1.53,4.78M98.15,39a5.38,5.38,0,0,0-.86-3.13,3.06,3.06,0,0,0-4.45-.57,3.21,3.21,0,0,0-1.13,1.86,3.82,3.82,0,0,0-.14.88v2.16a3.43,3.43,0,0,0,.87,2.39,2.85,2.85,0,0,0,2.26,1,3,3,0,0,0,2.54-1.26A5.55,5.55,0,0,0,98.15,39"/><path class="cls-2" d="M117.78,40.52a4.79,4.79,0,0,1-1.6,3.74,7.09,7.09,0,0,1-4.9,1.57,8.59,8.59,0,0,1-4.67-1.12l.67-2.4a8,8,0,0,0,4.17,1.15,3.94,3.94,0,0,0,2.54-.74,2.43,2.43,0,0,0,.91-2,2.5,2.5,0,0,0-.75-1.84,6.86,6.86,0,0,0-2.49-1.39q-4.72-1.77-4.72-5.17a4.59,4.59,0,0,1,1.65-3.64A6.56,6.56,0,0,1,113,27.29a8.76,8.76,0,0,1,4.09.86l-.72,2.35a7.15,7.15,0,0,0-3.45-.83,3.48,3.48,0,0,0-2.38.75,2.13,2.13,0,0,0-.72,1.63,2.2,2.2,0,0,0,.83,1.76,9.24,9.24,0,0,0,2.62,1.39,9.1,9.1,0,0,1,3.42,2.19,4.59,4.59,0,0,1,1.09,3.13"/><path class="cls-2" d="M127.32,34.75h-3.18v6.3c0,1.6.56,2.41,1.69,2.41a5.1,5.1,0,0,0,1.28-.14l.08,2.19a6.39,6.39,0,0,1-2.25.32,3.43,3.43,0,0,1-2.67-1,5.11,5.11,0,0,1-1-3.5V34.75h-1.9V32.58h1.9V30.2l2.83-.85v3.23h3.18Z"/><path class="cls-2" d="M141.67,39A7.11,7.11,0,0,1,140,43.88a6.11,6.11,0,0,1-4.76,2,5.79,5.79,0,0,1-4.55-1.9,6.91,6.91,0,0,1-1.7-4.78,7,7,0,0,1,1.75-4.94,6.08,6.08,0,0,1,4.72-1.92A5.94,5.94,0,0,1,140,34.21,6.84,6.84,0,0,1,141.67,39m-3,.09A5.82,5.82,0,0,0,137.9,36a2.84,2.84,0,0,0-2.59-1.55A2.89,2.89,0,0,0,132.66,36a6,6,0,0,0-.77,3.14,5.94,5.94,0,0,0,.77,3.08,2.93,2.93,0,0,0,2.63,1.55,2.87,2.87,0,0,0,2.58-1.58,5.81,5.81,0,0,0,.81-3.11"/><path class="cls-2" d="M151.05,35.12a5.31,5.31,0,0,0-.91-.08,2.76,2.76,0,0,0-2.36,1.15,4.4,4.4,0,0,0-.72,2.56v6.82h-2.88l0-8.9c0-1.5,0-2.86-.11-4.09h2.51l.11,2.49h.08A4.39,4.39,0,0,1,148.24,33a3.51,3.51,0,0,1,2.09-.69,4.07,4.07,0,0,1,.72,0Z"/><path class="cls-2" d="M164,38.46a6.89,6.89,0,0,1-.11,1.31h-8.65a3.77,3.77,0,0,0,1.25,2.94,4.28,4.28,0,0,0,2.84.91,9.64,9.64,0,0,0,3.5-.62l.45,2a11,11,0,0,1-4.36.8A6.28,6.28,0,0,1,154.13,44a6.54,6.54,0,0,1-1.72-4.77,7.44,7.44,0,0,1,1.6-4.89,5.53,5.53,0,0,1,4.54-2.08,4.83,4.83,0,0,1,4.25,2.08A7,7,0,0,1,164,38.46m-2.75-.75a4,4,0,0,0-.56-2.22,2.53,2.53,0,0,0-2.3-1.2,2.77,2.77,0,0,0-2.3,1.18,4.3,4.3,0,0,0-.85,2.24Z"/><path class="cls-2" d="M64.91,16.48a4.47,4.47,0,0,1-1.43,3.6,5.71,5.71,0,0,1-3.77,1.11,17.57,17.57,0,0,1-2.07-.1V12.38a15.44,15.44,0,0,1,2.44-.18,5.31,5.31,0,0,1,3.51,1,4.09,4.09,0,0,1,1.32,3.27m-1.49,0a3.25,3.25,0,0,0-.83-2.38,3.22,3.22,0,0,0-2.39-.82,6.12,6.12,0,0,0-1.14.09V20a6.78,6.78,0,0,0,.95,0,3.38,3.38,0,0,0,2.52-.9,3.63,3.63,0,0,0,.89-2.64"/><path class="cls-2" d="M72.84,17.87A3.51,3.51,0,0,1,72,20.29a3,3,0,0,1-2.34,1,2.86,2.86,0,0,1-2.24-.93A3.43,3.43,0,0,1,66.59,18a3.44,3.44,0,0,1,.86-2.43,3,3,0,0,1,2.32-1,2.92,2.92,0,0,1,2.25.94,3.32,3.32,0,0,1,.82,2.33m-1.47.05A3,3,0,0,0,71,16.4a1.41,1.41,0,0,0-1.28-.76,1.43,1.43,0,0,0-1.3.76A3,3,0,0,0,68,17.94a2.93,2.93,0,0,0,.38,1.52,1.44,1.44,0,0,0,1.29.76A1.42,1.42,0,0,0,71,19.45a2.9,2.9,0,0,0,.4-1.53"/><path class="cls-2" d="M83.47,14.73l-2,6.38h-1.3l-.82-2.76c-.21-.7-.38-1.39-.52-2.07h0a16.45,16.45,0,0,1-.51,2.07l-.88,2.76H76.1l-1.87-6.38h1.46l.72,3c.17.71.32,1.4.43,2h0a19.71,19.71,0,0,1,.52-2l.91-3.05h1.15l.87,3q.32,1.09.51,2.1h0c.1-.65.24-1.35.43-2.1l.78-3Z"/><path class="cls-2" d="M90.82,21.11H89.4V17.46c0-1.13-.43-1.69-1.28-1.69a1.31,1.31,0,0,0-1,.47,1.64,1.64,0,0,0-.39,1.09v3.78H85.28V16.56c0-.56,0-1.17,0-1.83h1.24l.07,1h0a2,2,0,0,1,.74-.77,2.36,2.36,0,0,1,1.28-.36,2.08,2.08,0,0,1,1.49.58,2.84,2.84,0,0,1,.73,2.11Z"/><rect class="cls-2" x="93.31" y="11.81" width="1.42" height="9.31"/><path class="cls-2" d="M103.08,17.87a3.51,3.51,0,0,1-.84,2.42,3,3,0,0,1-2.34,1,2.88,2.88,0,0,1-2.24-.93A3.43,3.43,0,0,1,96.83,18a3.49,3.49,0,0,1,.86-2.43,3,3,0,0,1,2.32-1,2.9,2.9,0,0,1,2.25.94,3.32,3.32,0,0,1,.82,2.33m-1.47.05a3,3,0,0,0-.38-1.52,1.4,1.4,0,0,0-1.27-.76,1.43,1.43,0,0,0-1.31.76,3,3,0,0,0-.37,1.54,2.93,2.93,0,0,0,.37,1.52,1.46,1.46,0,0,0,2.57,0,2.9,2.9,0,0,0,.39-1.53"/><path class="cls-2" d="M109.94,21.11h-1.27l-.1-.73h0a2.19,2.19,0,0,1-1.87.88,1.92,1.92,0,0,1-1.46-.58,1.81,1.81,0,0,1-.49-1.3,2,2,0,0,1,1-1.78,5,5,0,0,1,2.74-.61v-.12q0-1.26-1.32-1.26a2.92,2.92,0,0,0-1.66.48l-.29-.94a4.16,4.16,0,0,1,2.19-.55c1.67,0,2.5.88,2.5,2.64v2.35a10,10,0,0,0,.09,1.52m-1.47-2.19v-1c-1.56,0-2.35.4-2.35,1.29a.91.91,0,0,0,1,1,1.49,1.49,0,0,0,.87-.29,1.24,1.24,0,0,0,.49-.76,1.69,1.69,0,0,0,0-.25"/><path class="cls-2" d="M118,21.11h-1.26l-.06-1h0a2.12,2.12,0,0,1-2,1.17,2.36,2.36,0,0,1-1.91-.91,3.5,3.5,0,0,1-.76-2.35,3.72,3.72,0,0,1,.82-2.51,2.55,2.55,0,0,1,2-.89,1.91,1.91,0,0,1,1.8.87h0V11.81H118v7.58c0,.63,0,1.2,0,1.72m-1.46-2.69V17.36a2.68,2.68,0,0,0,0-.45,1.64,1.64,0,0,0-.52-.86,1.39,1.39,0,0,0-1-.34,1.41,1.41,0,0,0-1.24.63,2.63,2.63,0,0,0-.46,1.61,2.55,2.55,0,0,0,.44,1.54,1.44,1.44,0,0,0,1.23.63,1.35,1.35,0,0,0,1.12-.53,1.71,1.71,0,0,0,.42-1.17"/><path class="cls-2" d="M130.13,17.87a3.51,3.51,0,0,1-.84,2.42,3,3,0,0,1-2.33,1,2.85,2.85,0,0,1-2.24-.93,3.38,3.38,0,0,1-.83-2.35,3.48,3.48,0,0,1,.85-2.43,3,3,0,0,1,2.32-1,2.93,2.93,0,0,1,2.26.94,3.36,3.36,0,0,1,.81,2.33m-1.47.05a3,3,0,0,0-.38-1.52,1.47,1.47,0,0,0-2.57,0,3,3,0,0,0-.38,1.54,2.93,2.93,0,0,0,.38,1.52,1.45,1.45,0,0,0,2.56,0,2.9,2.9,0,0,0,.39-1.53"/><path class="cls-2" d="M137.76,21.11h-1.42V17.46c0-1.13-.43-1.69-1.29-1.69a1.27,1.27,0,0,0-1,.47,1.65,1.65,0,0,0-.4,1.09v3.78h-1.41V16.56c0-.56,0-1.17-.05-1.83h1.24l.07,1h0a2,2,0,0,1,.73-.77,2.41,2.41,0,0,1,1.29-.36,2,2,0,0,1,1.48.58,2.81,2.81,0,0,1,.74,2.11Z"/><path class="cls-2" d="M147.3,15.8h-1.56v3.1c0,.78.27,1.18.83,1.18a2.74,2.74,0,0,0,.63-.07l0,1.08a3.39,3.39,0,0,1-1.11.16,1.71,1.71,0,0,1-1.31-.52,2.53,2.53,0,0,1-.47-1.72V15.8h-.94V14.73h.94V13.57l1.39-.42v1.58h1.56Z"/><path class="cls-2" d="M154.81,21.11h-1.42V17.49c0-1.15-.43-1.72-1.29-1.72a1.36,1.36,0,0,0-1.35,1,1.88,1.88,0,0,0-.06.51v3.83h-1.42v-9.3h1.42v3.84h0a2.13,2.13,0,0,1,1.91-1.05,2,2,0,0,1,1.46.58,2.91,2.91,0,0,1,.72,2.14Z"/><path class="cls-2" d="M162.56,17.62a3.06,3.06,0,0,1-.06.65h-4.25a1.83,1.83,0,0,0,.61,1.44,2.12,2.12,0,0,0,1.4.45,4.74,4.74,0,0,0,1.72-.31l.22,1a5.38,5.38,0,0,1-2.14.39,3.09,3.09,0,0,1-2.33-.87,3.23,3.23,0,0,1-.85-2.34,3.66,3.66,0,0,1,.79-2.41,2.73,2.73,0,0,1,2.23-1,2.38,2.38,0,0,1,2.09,1,3.52,3.52,0,0,1,.57,2m-1.36-.37a1.82,1.82,0,0,0-.28-1.08,1.22,1.22,0,0,0-1.12-.6,1.39,1.39,0,0,0-1.14.58,2.16,2.16,0,0,0-.41,1.1Z"/></svg>